<svg id="Layer_1" data-name="Layer 1" xmlns="http://www.w3.org/2000/svg" viewBox="0 0 133.13 68"><defs><style>.cls-1{fill:#fff;}</style></defs><title></title><path class="cls-1" d="M119.25,0h-66A13.9,13.9,0,0,0,39.37,13.89V54.11A13.9,13.9,0,0,0,53.25,68h66a13.9,13.9,0,0,0,13.89-13.89V13.89A13.9,13.9,0,0,0,119.25,0Zm7.87,54.26a7.94,7.94,0,0,1-7.87,7.87h-66a7.94,7.94,0,0,1-7.87-7.87V13.89A7.94,7.94,0,0,1,53.25,6h66a7.94,7.94,0,0,1,7.87,7.87Zm-7.73-3.87a3.12,3.12,0,0,1,.29,4.29,2.85,2.85,0,0,1-2.29,1,3.42,3.42,0,0,1-2-.72L94.77,36.5,88,41.66a3.31,3.31,0,0,1-3.72,0l-6.44-5L57.12,55a2.68,2.68,0,0,1-2,.72,2.85,2.85,0,0,1-2.29-1,3,3,0,0,1,.29-4.29L73,32.93,53.25,17.61A3.06,3.06,0,0,1,57,12.74L79.59,30.35h0l6.59,5.15,29.2-22.62a3.06,3.06,0,0,1,3.72,4.87l-19.47,15Zm-84-16.32a3,3,0,0,1-3,3H12.88a3,3,0,1,1,0-6H32.21A3.06,3.06,0,0,1,35.36,34.07ZM0,21.19a3,3,0,0,1,3-3h29.2a3,3,0,1,1,0,6H3A3,3,0,0,1,0,21.19ZM35.36,47a3,3,0,0,1-3,3H19.61a3,3,0,1,1,0-6h12.6A3.15,3.15,0,0,1,35.36,47Z"/></svg>