<?xml version="1.0" encoding="utf-8"?>
<!-- Generator: Adobe Illustrator 17.1.0, SVG Export Plug-In . SVG Version: 6.00 Build 0)  -->
<!DOCTYPE svg PUBLIC "-//W3C//DTD SVG 1.1//EN" "http://www.w3.org/Graphics/SVG/1.1/DTD/svg11.dtd">
<svg version="1.1" id="Layer_1" xmlns="http://www.w3.org/2000/svg" xmlns:xlink="http://www.w3.org/1999/xlink" x="0px" y="0px"
	 viewBox="0 0 45 45" enable-background="new 0 0 45 45" xml:space="preserve">
<g>
	<g>
		<path fill="#FFFFFF" d="M26.2,4.1L26.2,4.1l2.1,1c0.6,0.3,0.8,1,0.6,1.5l-3.7,7.9c-0.3,0.6-1,0.8-1.5,0.6l-2.1-1
			c-0.6-0.3-0.8-1-0.6-1.5l3.7-7.9C25,4.1,25.7,3.8,26.2,4.1L26.2,4.1z M15.3,27.1L15.3,27.1l2.1,1c0.6,0.3,0.8,1,0.6,1.5l-3.7,7.9
			c-0.3,0.6-1,0.8-1.5,0.6l-2.1-1c-0.6-0.3-0.8-1-0.6-1.5l3.7-7.9C14,27.1,14.7,26.8,15.3,27.1L15.3,27.1z M27.2,15.8L27.2,15.8
			c1.8,0.9-0.1,7.3-0.7,8.7c-0.6,1.4-4.3,7-6.1,6.1l0,0c-0.6-0.3-1.3,0-1.5,0.6L15.7,38c-0.3,0.6,0,1.3,0.6,1.5l0,0
			c0.3,0.1,2.3,1.1,4.9-0.3c6.5-4.4,9.7-11.4,10.2-12.5c0.5-1.1,3.8-8.1,2.9-15.9c-0.5-2.9-2.6-3.8-2.9-4l0,0
			c-0.6-0.3-1.3,0-1.5,0.6l-3.2,6.9C26.4,14.8,26.6,15.5,27.2,15.8L27.2,15.8L27.2,15.8z"/>
	</g>
</g>
</svg>
