<?xml version="1.0" standalone="no"?>
<!DOCTYPE svg PUBLIC "-//W3C//DTD SVG 20010904//EN"
 "http://www.w3.org/TR/2001/REC-SVG-20010904/DTD/svg10.dtd">
<svg version="1.0" xmlns="http://www.w3.org/2000/svg"
 width="211.000000pt" height="75.000000pt" viewBox="0 0 211.000000 75.000000"
 preserveAspectRatio="xMidYMid meet">

<g transform="translate(0.000000,75.000000) scale(0.100000,-0.100000)"
fill="#000000" stroke="none">
<path d="M355 636 c-69 -16 -195 -72 -195 -87 0 -22 31 -20 60 4 40 34 131 67
204 74 69 6 159 -13 228 -48 29 -15 39 -17 30 -7 -7 9 -38 27 -70 41 -73 33
-174 42 -257 23z"/>
<path d="M375 590 c-44 -11 -85 -29 -85 -36 0 -3 8 -3 18 1 9 5 55 16 102 26
72 14 78 17 40 17 -25 0 -58 -4 -75 -8z"/>
<path d="M455 571 c-4 -7 -4 -22 -1 -35 5 -19 18 -25 78 -39 65 -14 75 -14 96
-1 29 19 25 33 -16 57 -39 23 -146 35 -157 18z"/>
<path d="M343 549 c-43 -14 -70 -29 -92 -54 -35 -40 -43 -82 -13 -70 9 4 44
10 78 14 93 10 140 57 118 115 -7 19 -13 19 -91 -5z"/>
<path d="M670 530 c8 -5 20 -10 25 -10 6 0 3 5 -5 10 -8 5 -19 10 -25 10 -5 0
-3 -5 5 -10z"/>
<path d="M215 500 c-16 -16 -24 -30 -19 -30 6 0 23 14 39 30 16 17 24 30 19
30 -6 0 -23 -13 -39 -30z"/>
<path d="M641 481 c-24 -18 -24 -20 -11 -67 17 -62 51 -115 68 -109 8 3 29 5
48 5 33 0 34 1 34 38 0 118 -71 186 -139 133z"/>
<path d="M430 464 l-31 -26 53 -25 c28 -13 68 -41 88 -63 l36 -39 27 22 27 22
-15 51 c-15 48 -19 52 -58 62 -91 23 -94 23 -127 -4z"/>
<path d="M990 470 c0 -5 9 -10 20 -10 18 0 20 -7 20 -85 0 -78 2 -85 20 -85
18 0 20 7 20 85 0 78 2 85 20 85 11 0 20 5 20 10 0 6 -27 10 -60 10 -33 0 -60
-4 -60 -10z"/>
<path d="M1400 461 c0 -11 -6 -22 -12 -25 -10 -5 -10 -7 0 -12 7 -3 12 -26 12
-58 0 -54 12 -76 42 -76 19 0 24 15 8 25 -15 9 -13 102 3 109 10 5 10 7 0 12
-7 3 -13 14 -13 25 0 12 -7 19 -20 19 -13 0 -20 -7 -20 -19z"/>
<path d="M1490 385 c0 -88 1 -95 20 -95 19 0 20 7 20 95 0 88 -1 95 -20 95
-19 0 -20 -7 -20 -95z"/>
<path d="M1700 385 c0 -88 2 -95 20 -95 16 0 19 8 22 63 2 47 7 62 18 62 11 0
16 -15 18 -62 3 -55 6 -63 22 -63 18 0 20 7 20 65 0 55 -3 66 -21 76 -12 6
-30 9 -40 6 -15 -4 -19 0 -19 19 0 17 -6 24 -20 24 -19 0 -20 -7 -20 -95z"/>
<path d="M2010 461 c0 -10 -8 -22 -17 -26 -17 -6 -17 -7 0 -16 12 -7 17 -23
17 -57 0 -27 5 -53 12 -60 15 -15 48 -16 48 -2 0 6 -4 10 -10 10 -15 0 -13
107 3 114 10 5 10 7 0 12 -7 3 -13 14 -13 25 0 12 -7 19 -20 19 -13 0 -20 -7
-20 -19z"/>
<path d="M149 423 c-26 -28 -59 -78 -59 -88 0 -3 25 14 55 38 30 23 55 50 55
60 0 25 -23 21 -51 -10z"/>
<path d="M1110 384 c0 -82 9 -93 75 -93 l55 1 0 74 c0 67 -2 74 -20 74 -18 0
-20 -7 -20 -60 0 -46 -4 -62 -16 -67 -23 -9 -34 15 -34 75 0 45 -3 52 -20 52
-18 0 -20 -7 -20 -56z"/>
<path d="M1260 365 c0 -68 2 -75 20 -75 17 0 20 7 20 43 0 48 13 67 47 67 16
0 23 6 23 20 0 23 -28 27 -49 8 -11 -10 -14 -10 -18 0 -3 6 -13 12 -24 12 -17
0 -19 -8 -19 -75z"/>
<path d="M1568 429 c-14 -7 -18 -23 -18 -62 0 -64 11 -77 67 -77 32 0 45 5 53
20 11 21 1 27 -17 9 -16 -16 -57 -7 -61 13 -3 13 6 17 40 20 36 3 44 7 46 26
7 49 -61 80 -110 51z m66 -25 c7 -19 -1 -34 -19 -34 -18 0 -28 17 -21 35 7 20
32 19 40 -1z"/>
<path d="M1840 377 c0 -36 5 -68 12 -75 7 -7 34 -12 60 -12 l48 0 0 76 c0 66
-2 75 -17 72 -15 -3 -19 -16 -21 -66 -3 -53 -6 -63 -20 -60 -13 3 -18 16 -20
66 -3 54 -6 62 -22 62 -18 0 -20 -7 -20 -63z"/>
<path d="M303 423 c-45 -9 -22 -21 40 -21 70 -1 106 -12 157 -49 l35 -26 -25
27 c-46 51 -141 82 -207 69z"/>
<path d="M55 331 c-29 -58 -48 -141 -35 -155 4 -4 24 16 43 45 41 65 88 110
142 137 26 14 33 21 21 22 -29 0 -101 -46 -135 -87 -25 -30 -31 -33 -31 -18 1
11 7 38 15 60 20 57 10 55 -20 -4z"/>
<path d="M806 340 c3 -19 15 -44 25 -55 26 -26 23 -9 -7 45 l-25 45 7 -35z"/>
<path d="M227 346 c-47 -17 -99 -57 -132 -101 -34 -43 -68 -132 -55 -140 6 -3
15 6 20 22 29 80 72 128 146 163 68 31 163 33 221 2 58 -30 111 -87 140 -149
13 -29 28 -55 33 -58 5 -3 23 16 39 42 53 86 123 107 184 53 19 -16 40 -43 47
-60 14 -35 35 -41 24 -7 -20 66 -62 106 -127 121 -40 9 -112 -25 -136 -65
l-19 -32 -22 44 c-28 56 -94 125 -145 151 -51 27 -165 34 -218 14z"/>
<path d="M612 314 c-25 -17 -27 -36 -9 -77 l12 -29 26 39 c20 31 23 44 16 61
-12 26 -16 27 -45 6z"/>
<path d="M1030 240 c0 -7 180 -10 520 -10 340 0 520 3 520 10 0 7 -180 10
-520 10 -340 0 -520 -3 -520 -10z"/>
<path d="M1033 155 c0 -22 2 -30 4 -17 2 12 2 30 0 40 -3 9 -5 -1 -4 -23z"/>
<path d="M1431 153 c1 -33 2 -35 8 -13 l7 25 7 -25 7 -25 14 25 14 24 5 -24
c3 -18 5 -15 6 13 1 43 -15 50 -26 10 l-6 -28 -10 28 c-13 39 -27 33 -26 -10z"/>
<path d="M1611 160 c-1 -29 3 -36 18 -36 13 0 18 7 17 22 -1 16 -4 19 -13 13
-8 -7 -13 -3 -16 13 -3 16 -5 12 -6 -12z"/>
<path d="M1118 175 c-7 -7 3 -55 11 -55 8 0 7 47 -1 55 -2 3 -7 3 -10 0z"/>
<path d="M1368 175 c-7 -7 3 -55 11 -55 8 0 7 47 -1 55 -2 3 -7 3 -10 0z"/>
<path d="M1722 154 c4 -36 24 -42 22 -7 0 15 -6 29 -13 31 -8 3 -11 -5 -9 -24z"/>
<path d="M1059 143 c5 -26 6 -26 9 -5 2 12 7 22 12 22 5 0 11 -10 13 -22 4
-20 4 -19 6 5 1 22 -3 27 -23 27 -20 0 -22 -4 -17 -27z"/>
<path d="M1154 156 c-8 -20 3 -36 24 -35 14 0 13 2 -3 9 -19 8 -19 9 3 9 14 1
22 6 20 14 -7 18 -37 21 -44 3z m33 -2 c-3 -3 -12 -4 -19 -1 -8 3 -5 6 6 6 11
1 17 -2 13 -5z"/>
<path d="M1211 143 c0 -16 3 -22 6 -13 3 8 10 21 16 28 7 8 5 12 -7 12 -11 0
-16 -8 -15 -27z"/>
<path d="M1251 143 c2 -25 2 -26 6 -5 3 15 10 22 19 18 8 -3 14 -1 14 4 0 6
-9 10 -20 10 -15 0 -20 -6 -19 -27z"/>
<path d="M1317 163 c-16 -16 -6 -43 16 -42 21 0 21 1 2 9 -19 8 -19 9 2 9 16
1 21 6 17 16 -6 16 -26 20 -37 8z"/>
<path d="M1528 162 c11 -7 11 -10 -2 -15 -25 -10 -19 -27 10 -27 21 0 25 4 22
22 -2 14 -11 24 -23 26 -15 2 -16 1 -7 -6z"/>
<path d="M1570 145 c0 -14 4 -25 9 -25 5 0 11 11 13 25 4 17 1 25 -8 25 -8 0
-14 -11 -14 -25z"/>
<path d="M1664 156 c-8 -20 3 -36 24 -36 15 0 15 2 2 10 -13 8 -12 10 3 10 11
0 17 6 15 13 -7 18 -37 21 -44 3z"/>
<path d="M1762 145 c0 -16 2 -22 5 -12 2 9 2 23 0 30 -3 6 -5 -1 -5 -18z"/>
<path d="M1791 143 c2 -24 2 -25 6 -5 2 12 8 22 13 22 5 0 11 -10 13 -22 4
-20 4 -19 6 5 1 21 -4 27 -19 27 -15 0 -20 -6 -19 -27z"/>
<path d="M1850 145 c0 -16 6 -25 16 -25 8 0 12 -5 9 -10 -4 -6 -12 -7 -18 -4
-9 5 -9 3 0 -6 18 -19 43 5 43 41 0 24 -4 29 -25 29 -20 0 -25 -5 -25 -25z
m30 0 c0 -8 -4 -15 -10 -15 -5 0 -10 7 -10 15 0 8 5 15 10 15 6 0 10 -7 10
-15z"/>
</g>
</svg>
